<?xml version="1.0" encoding="UTF-8"?>
<svg width="41px" height="41px" viewBox="0 0 41 41" version="1.1" xmlns="http://www.w3.org/2000/svg" xmlns:xlink="http://www.w3.org/1999/xlink">
    <!-- Generator: Sketch 61.2 (89653) - https://sketch.com -->
    <title>Group 20</title>
    <desc>Created with Sketch.</desc>
    <defs>
        <polygon id="path-1" points="0.354022269 39.1291587 38.638556 39.1291587 38.638556 0.0545407454 0.354022269 0.0545407454"></polygon>
    </defs>
    <g id="Page-1" stroke="none" stroke-width="1" fill="none" fill-rule="evenodd">
        <g id="Homepage" transform="translate(-25.000000, -2410.000000)">
            <g id="Group-2" transform="translate(23.000000, 2407.000000)">
                <g id="Group-20" transform="translate(3.000000, 3.000000)">
                    <g id="Group-17">
                        <ellipse id="Oval" stroke="#9A681C" cx="19.5" cy="20.3921569" rx="19.5" ry="19.6078431"></ellipse>
                        <path d="M15.8467017,18.2474821 C16.3022674,16.3949934 16.5953437,16.4466564 16.1784862,18.2474821 L18.3533765,18.2474821 C18.1457984,17.2954062 17.8408119,16.3272671 17.4111934,15.3673766 C17.6630094,14.7417764 17.9650184,14.1044543 18.3227502,13.4588834 C19.2500455,15.1325052 19.7987661,16.7505566 20.0918424,18.2474821 L22.0204464,18.2474821 C21.5772163,16.2187313 20.694159,14.1174786 19.1024439,12.1772929 C19.7677144,11.1761589 20.5746315,10.1611322 21.5525452,9.14523733 L21.3194452,8.85088829 C20.145013,9.61063876 19.1551891,10.4346424 18.3227502,11.2998897 C17.4898859,10.4346424 16.5004874,9.61063876 15.3260552,8.85088829 L15.0925299,9.14523733 C16.0708689,10.1611322 16.8773606,11.1761589 17.5426312,12.1772929 C17.1500194,12.6561528 16.7995188,13.1445638 16.4890025,13.639487 C15.4090013,11.9176753 13.8564198,10.2718387 11.6589852,8.85088829 L11.4258853,9.14523733 C13.463808,11.2621192 14.764999,13.375528 15.567237,15.3673766 C15.1376186,16.3272671 14.832632,17.2954062 14.625054,18.2474821 L15.8467017,18.2474821 Z" id="Fill-3" fill="#9A681C"></path>
                        <path d="M24.9597598,18.2474821 C25.5038013,14.2581409 24.8295981,9.535532 21.1225439,4.80641092 L20.755454,5.04084821 C23.2323533,10.3356578 23.3833578,14.8034247 22.6849088,18.2474821 L24.9597598,18.2474821 Z" id="Fill-5" fill="#9A681C"></path>
                        <mask id="mask-2" fill="white">
                            <use xlink:href="#path-1"></use>
                        </mask>
                        <g id="Clip-8"></g>
                        <path d="M13.2944703,30.9090927 L26.3701844,30.9090927 L26.3701844,19.8466917 L13.2944703,19.8466917 L13.2944703,30.9090927 Z M26.7194089,31.6215216 L12.9456712,31.6215216 C12.7521302,31.6215216 12.5964467,31.4626252 12.5964467,31.2655242 L12.5964467,19.4902602 C12.5964467,19.2931593 12.7521302,19.1342629 12.9456712,19.1342629 L26.7194089,19.1342629 C26.9125245,19.1342629 27.068208,19.2931593 27.068208,19.4902602 L27.068208,31.2655242 C27.068208,31.4626252 26.9125245,31.6215216 26.7194089,31.6215216 L26.7194089,31.6215216 Z" id="Fill-7" fill="#9A681C" mask="url(#mask-2)"></path>
                        <polygon id="Fill-9" fill="#9A681C" mask="url(#mask-2)" points="17.5421632 22.134626 18.8242128 22.134626 18.8242128 21.8606817 17.5421632 21.8606817"></polygon>
                        <path d="M18.824468,22.372276 L17.5424185,22.372276 C17.4139583,22.372276 17.3097439,22.2654768 17.3097439,22.1347997 L17.3097439,21.8604212 C17.3097439,21.7297441 17.4139583,21.6229449 17.5424185,21.6229449 L18.824468,21.6229449 C18.9529282,21.6229449 19.0571425,21.7297441 19.0571425,21.8604212 L19.0571425,22.1347997 C19.0571425,22.2654768 18.9529282,22.372276 18.824468,22.372276" id="Fill-10" fill="#9A681C" mask="url(#mask-2)"></path>
                        <polygon id="Fill-11" fill="#9A681C" mask="url(#mask-2)" points="13.0686016 22.134626 16.78629 22.134626 16.78629 21.8606817 13.0686016 21.8606817"></polygon>
                        <path d="M16.7870556,22.372276 L13.0689419,22.372276 C12.9404817,22.372276 12.8362674,22.2654768 12.8362674,22.1347997 L12.8362674,21.8604212 C12.8362674,21.7297441 12.9404817,21.6229449 13.0689419,21.6229449 L16.7870556,21.6229449 C16.9155158,21.6229449 17.0197302,21.7297441 17.0197302,21.8604212 L17.0197302,22.1347997 C17.0197302,22.2654768 16.9155158,22.372276 16.7870556,22.372276" id="Fill-12" fill="#9A681C" mask="url(#mask-2)"></path>
                        <polygon id="Fill-13" fill="#9A681C" mask="url(#mask-2)" points="22.233937 20.8365381 24.8278116 20.8365381 24.8278116 20.5625938 22.233937 20.5625938"></polygon>
                        <path d="M24.8281519,21.0740578 L22.233852,21.0740578 C22.1053918,21.0740578 22.0011774,20.9672586 22.0011774,20.8365815 L22.0011774,20.5626372 C22.0011774,20.4315259 22.1053918,20.3247267 22.233852,20.3247267 L24.8281519,20.3247267 C24.9566121,20.3247267 25.0608264,20.4315259 25.0608264,20.5626372 L25.0608264,20.8365815 C25.0608264,20.9672586 24.9566121,21.0740578 24.8281519,21.0740578" id="Fill-14" fill="#9A681C" mask="url(#mask-2)"></path>
                        <polygon id="Fill-15" fill="#9A681C" mask="url(#mask-2)" points="13.073706 20.8365381 21.4606238 20.8365381 21.4606238 20.5625938 13.073706 20.5625938"></polygon>
                        <path d="M21.4606664,21.0740578 L13.0737485,21.0740578 C12.9457137,21.0740578 12.8414993,20.9672586 12.8414993,20.8365815 L12.8414993,20.5626372 C12.8414993,20.4315259 12.9457137,20.3247267 13.0737485,20.3247267 L21.4606664,20.3247267 C21.5891265,20.3247267 21.6933409,20.4315259 21.6933409,20.5626372 L21.6933409,20.8365815 C21.6933409,20.9672586 21.5891265,21.0740578 21.4606664,21.0740578" id="Fill-16" fill="#9A681C" mask="url(#mask-2)"></path>
                    </g>
                </g>
            </g>
        </g>
    </g>
</svg>