<?xml version="1.0" encoding="UTF-8"?>
<svg width="41px" height="41px" viewBox="0 0 41 41" version="1.1" xmlns="http://www.w3.org/2000/svg" xmlns:xlink="http://www.w3.org/1999/xlink">
    <!-- Generator: Sketch 61.2 (89653) - https://sketch.com -->
    <title>Group 20</title>
    <desc>Created with Sketch.</desc>
    <g id="Page-1" stroke="none" stroke-width="1" fill="none" fill-rule="evenodd">
        <g id="Homepage" transform="translate(-25.000000, -3007.000000)">
            <g id="Group-2" transform="translate(23.000000, 3004.000000)">
                <g id="Group-20" transform="translate(3.000000, 3.000000)">
                    <g id="Group-17" stroke="#DA1D52">
                        <ellipse id="Oval" cx="19.5" cy="20.3921569" rx="19.5" ry="19.6078431"></ellipse>
                    </g>
                    <g id="Group-23" transform="translate(6.000000, 10.000000)" fill="#DA1D52">
                        <path d="M9.80741597,11 C8.2594403,11 7,9.7358522 7,8.18209055 C7,6.62791278 8.2594403,5.36376498 9.80741597,5.36376498 C9.87872069,5.36376498 9.95002541,5.36667776 10.0217447,5.37208722 C10.0540805,4.36759321 10.878645,3.56033622 11.8876896,3.56033622 C11.9892574,3.56033622 12.0908252,3.56865846 12.1903201,3.58488682 C12.4154275,2.8962217 12.8399393,2.27871172 13.4074751,1.82182091 C14.0666292,1.29169441 14.8953392,1 15.7410463,1 C17.0552089,1 18.287288,1.7057257 18.9576353,2.84212716 C19.0430351,2.98776631 18.9953605,3.17543276 18.8502637,3.26156791 C18.7055814,3.34728695 18.5186138,3.29943409 18.4327994,3.15379494 C17.8718966,2.20256325 16.8404656,1.61168442 15.7410463,1.61168442 C14.2855181,1.61168442 13.0347836,2.60411119 12.6998172,4.02471704 C12.6799182,4.10877164 12.6256106,4.18075899 12.5497457,4.22237017 C12.4738808,4.26398136 12.3843353,4.27147137 12.3026665,4.24275965 C12.1691775,4.19615513 12.02947,4.17243675 11.8876896,4.17243675 C11.1941269,4.17243675 10.6303222,4.73834887 10.6303222,5.43408788 C10.6303222,5.51314913 10.6377843,5.59387483 10.6531231,5.67293609 C10.672193,5.77446738 10.6394425,5.87849534 10.566065,5.95006658 C10.4922729,6.02205393 10.3873886,6.05159787 10.2874791,6.02912783 C10.1287018,5.99375832 9.96743702,5.97586551 9.80741597,5.97586551 C8.59565034,5.97586551 7.6094066,6.96537949 7.6094066,8.18209055 C7.6094066,9.39838549 8.59565034,10.3878995 9.80741597,10.3878995 C10.3562965,10.3878995 10.8819615,10.1835885 11.2874034,9.81283289 C11.377778,9.73002663 11.5083651,9.70963715 11.6194678,9.7604028 C11.730156,9.81116844 11.8006316,9.92351864 11.7977296,10.0458555 L11.7973151,10.0620839 L11.7969005,10.0753995 C11.7969005,10.2143808 11.7044531,10.3317244 11.5780116,10.3687583 C11.078464,10.776964 10.4557914,11 9.80741597,11 M17.3255953,13 C17.201284,13 17.0827236,12.9230171 17.0287522,12.7932866 C16.9548732,12.6174613 17.0283098,12.4107479 17.1924362,12.3318642 C17.6759676,12.0985393 18.0758875,11.6927157 18.3183168,11.1890002 C18.3687491,11.0839803 18.4656324,11.0136502 18.5749025,11.0017701 C18.684615,10.9898901 18.7921156,11.0383608 18.8611284,11.1305502 C19.0756871,11.4180482 19.3809357,11.6043279 19.7198059,11.6556499 C19.8980887,11.6822613 20.0219577,11.8590369 19.9967415,12.0500686 C19.9719677,12.2411003 19.8073989,12.3746325 19.6295584,12.3475459 C19.2747623,12.2938479 18.9451823,12.1408324 18.6695738,11.906082 C18.3621133,12.3660788 17.9431707,12.735787 17.4587545,12.9691118 C17.4154003,12.9900207 17.3702766,13 17.3255953,13 M15.6751692,13 C14.5704798,13 13.5602384,12.4117542 13.0385673,11.4637866 C12.9538288,11.3102939 13.0134106,11.1194999 13.1714125,11.0371797 C13.3294144,10.9552884 13.5262548,11.0131697 13.6109933,11.1666624 C14.0192384,11.9088297 14.8105721,12.3697366 15.6751692,12.3697366 C15.8547971,12.3697366 16,12.5107956 16,12.6848683 C16,12.8589411 15.8547971,13 15.6751692,13" id="Fill-3"></path>
                        <path d="M13.1060955,11 C11.9450309,11 11,10.2290414 11,9.28099128 C11,8.83253763 11.2108901,8.40774706 11.5933915,8.0852421 C11.7252563,7.97417826 11.9431605,7.97112495 12.0797013,8.07913549 C12.2157745,8.18676437 12.2195154,8.36461918 12.087183,8.47568302 C11.8299999,8.69284909 11.6878478,8.9790961 11.6878478,9.28099128 C11.6878478,9.91951295 12.324259,10.4385742 13.1060955,10.4385742 C13.6270082,10.4385742 14.1049011,10.2061416 14.3536672,9.83211219 C14.4443827,9.69585861 14.6529348,9.64509748 14.81987,9.71914004 C14.9868052,9.7931826 15.0489967,9.96340416 14.9582813,10.0996577 C14.5893405,10.6549769 13.8795152,11 13.1060955,11" id="Fill-5"></path>
                        <path d="M21.1140851,11 C20.9001201,11 20.6794948,10.9856682 20.4517928,10.9574261 C20.2840344,10.9363499 20.1645637,10.7816506 20.1853774,10.6117765 C20.2061911,10.4419023 20.35938,10.320925 20.5267222,10.3420012 C21.5898864,10.4752027 22.4665599,10.2551672 23.1330148,9.68863907 C23.8598295,9.07026348 24.2144951,8.14712609 24.3860001,7.45540533 C23.9172754,7.73824788 23.394435,7.75510884 22.9744144,7.59619432 C22.4145256,7.38458931 22.1044013,6.89435699 22.202642,6.37672561 C22.3583286,5.55348939 22.9248777,5.4127004 23.424823,5.28835084 C23.9705585,5.15304166 24.5350262,5.01267419 24.9945929,4.06930365 C25.5253425,2.97924279 25.4154461,1.91194421 25.2381133,1.22359564 C24.9592096,1.83733448 24.4430296,2.64792498 23.5318055,3.18831865 C22.8262207,3.60647038 22.0028304,3.62712506 21.2064979,3.64693668 C20.1612335,3.67264964 19.1738311,3.69709803 18.3812451,4.53677368 C17.924176,5.02110467 17.6648372,5.56318444 17.6111379,6.14783812 C17.5953194,6.31813378 17.445877,6.44332639 17.2777023,6.42730848 C17.1095275,6.41171209 16.9858941,6.26038501 17.0012962,6.09008934 C17.0683163,5.36296057 17.3838522,4.69610973 17.9387456,4.10850538 C18.9057506,3.08378072 20.1204386,3.053431 21.1919283,3.02687499 C21.9433032,3.00832794 22.6530507,2.99104546 23.2225138,2.65298327 C24.5933046,1.84028514 24.9284053,0.263364147 24.9317355,0.247346238 C24.9575445,0.11962449 25.059948,0.0222524633 25.1873279,0.00328388671 C25.315124,-0.0156846898 25.4404226,0.0488084704 25.5011986,0.163462978 C25.5453237,0.246924714 26.5731046,2.23019477 25.5436586,4.34371573 C24.9579608,5.54590196 24.1562167,5.74528277 23.5709352,5.89070852 C23.0618319,6.0171657 22.8815852,6.08208039 22.8037419,6.49348774 C22.7546216,6.75272495 22.9802422,6.93650938 23.1883793,7.01533435 C23.6088162,7.17424887 24.2028394,7.03767512 24.5824815,6.37377494 C24.6532481,6.24984691 24.7989441,6.19125508 24.9342332,6.23172138 C25.0695223,6.27218768 25.1598538,6.401174 25.1531934,6.54407061 C25.1486144,6.63891349 25.0249809,8.88647905 23.5297241,10.1607459 C22.8749248,10.7188435 22.064439,11 21.1140851,11" id="Fill-7"></path>
                        <path d="M19.7694651,9 C19.6707905,9 19.5885196,8.89766005 19.5842294,8.76641239 C19.5796869,8.63150973 19.6591818,8.51754024 19.7616418,8.51155933 C20.1459932,8.48929707 20.4076954,8.29624671 20.538925,7.93772461 C20.6608172,7.60412296 20.6504702,7.18280134 20.5661804,6.82859879 C20.3950772,7.16419408 20.1308513,7.3080681 19.7669415,7.26719858 C19.6276362,7.25124949 19.5297187,7.28647038 19.4683941,7.37452261 C19.3518016,7.54265253 19.3666911,7.88688691 19.3810759,7.99421095 C19.3987414,8.12745225 19.3316124,8.25404809 19.2306665,8.27730717 C19.1297206,8.30089852 19.0333173,8.21218175 19.0156518,8.07927272 C19.0065667,8.01281821 18.9356522,7.41738578 19.1945784,7.04490823 C19.2924959,6.90402466 19.4764697,6.74386929 19.7987394,6.78041927 C20.1285801,6.8176338 20.2840367,6.6564816 20.3731214,6.18531911 C20.3905346,6.09327961 20.4468119,6.02283782 20.517474,6.00456283 C20.5883885,5.98628784 20.6605648,6.02383464 20.7032144,6.1005896 C20.9714781,6.58570755 21.1223922,7.46888802 20.8733082,8.14971451 C20.7390502,8.51654342 20.4399981,8.96178866 19.7777932,8.99966773 C19.7750171,9 19.7722411,9 19.7694651,9" id="Fill-9"></path>
                        <path d="M11.272948,19 C11.1582066,19 11.0512632,18.9202268 11.0137588,18.7951002 C10.9665997,18.6387933 11.0445793,18.4707431 11.1879131,18.4193157 L13.0482828,17.752379 C13.8889768,17.4506985 14.4537717,16.599919 14.4537717,15.6345414 L14.4537717,11.2976311 C14.4537717,11.1332253 14.576311,11 14.7270715,11 C14.877832,11 15,11.1332253 15,11.2976311 L15,15.6345414 C15,16.857461 14.2840733,17.9362219 13.2187239,18.3180806 L11.3583542,18.9850172 C11.330133,18.9951407 11.3011692,19 11.272948,19" id="Fill-11"></path>
                        <path d="M20.7270493,19 C20.6988282,19 20.6702357,18.9955642 20.6416432,18.9863231 L18.7812748,18.3775149 C17.7159262,18.0289381 17,17.0441992 17,15.9278661 L17,12.2716903 C17,12.1216138 17.1221679,12 17.2732996,12 C17.42406,12 17.5462279,12.1216138 17.5462279,12.2716903 L17.5462279,15.9278661 C17.5462279,16.8091039 18.1110224,17.5857316 18.9520871,17.8611184 L20.8124555,18.4699266 C20.9554179,18.5168717 21.0333974,18.6702751 20.9862384,18.8129588 C20.9487339,18.9271796 20.8417906,19 20.7270493,19" id="Fill-13"></path>
                        <path d="M17.7191859,20 C17.6966535,20 17.6737391,19.996775 17.6508248,19.9898642 C16.313773,19.585816 16.0155047,17.4826461 16.0036656,17.3932671 C15.9788418,17.2085198 16.0827201,17.0343691 16.2358643,17.0044225 C16.3886265,16.974476 16.5329869,17.0997908 16.5578108,17.2840773 C16.5620117,17.3126417 16.8133056,19.0380243 17.7871651,19.3324221 C17.9376359,19.378033 18.0292933,19.5618588 17.9914846,19.743381 C17.9594046,19.8972603 17.8448329,20 17.7191859,20" id="Fill-15"></path>
                        <path d="M5.12570842,20 C5.23185493,20 5.33175753,19.9329462 5.37234297,19.8236281 C5.42502598,19.6817991 5.35751367,19.5224955 5.22131833,19.4676332 C3.61351084,18.820259 2.71594841,17.6254816 2.55477741,15.9170313 C2.50482611,15.3915731 2.53526519,14.8941556 2.58911893,14.4861432 C2.94424146,15.1314855 3.56316929,15.5512832 4.15751172,15.6337797 C4.83614697,15.7280614 5.38170883,15.3659707 5.58151404,14.6889303 C5.82775834,13.8525861 5.40239179,13.4535142 4.99068381,13.0674467 C4.53682941,12.6419597 4.06736524,12.2018427 4.1056092,11.0216953 C4.15243854,9.57577091 4.89351292,8.54273553 5.423465,7.98436 C5.35829416,8.71341801 5.40122106,9.84114152 6.0271733,10.9062815 C6.48883258,11.6918272 7.22483378,12.1725829 7.93663981,12.6378958 C8.80415342,13.2048055 9.70132561,13.7908153 10.2070825,14.9567392 C10.7799615,16.2762773 10.4010341,18.0306493 9.34503235,18.9507092 C9.23264192,19.048242 9.21781263,19.2217692 9.31186156,19.3388086 C9.40552025,19.4554416 9.57215467,19.4708843 9.68415485,19.3733515 C10.2941071,18.8417975 10.7292297,18.0647858 10.9087422,17.1853647 C11.0835718,16.3307331 11.0055228,15.4586269 10.6890345,14.7295689 C10.1177165,13.4128755 9.10815391,12.7529033 8.21761588,12.1713637 C7.5272733,11.7198679 6.87517468,11.2939745 6.47829598,10.6185596 C5.58229453,9.0937961 6.05800262,7.37112224 6.0630758,7.35364761 C6.0946856,7.242704 6.05605139,7.12281988 5.96668539,7.0541405 C5.8773194,6.98505474 5.75595334,6.98180364 5.66307515,7.04601276 C5.58112379,7.10250054 3.65916945,8.45942623 3.57682785,11.0030015 C3.53038875,12.439579 4.16999955,13.0389996 4.63673201,13.4766783 C5.04336682,13.8582755 5.21741588,14.0472454 5.07575712,14.5271883 C4.90873246,15.0940979 4.47243906,15.1217323 4.2273655,15.0880021 C3.57331565,14.9969715 2.84902179,14.3134288 2.81897296,13.3665474 C2.81468027,13.2340653 2.7202411,13.1235281 2.59419211,13.1036152 C2.46853337,13.0837022 2.34638683,13.1601029 2.30463066,13.2852701 C2.28785015,13.335662 1.89643488,14.5296266 2.02638631,15.9519806 C2.14853285,17.2873678 2.76863142,19.0705933 5.03048875,19.9813062 C5.06170831,19.9939042 5.09409861,20 5.12570842,20" id="Fill-17"></path>
                        <path d="M7.18504861,20 C7.26944254,20 7.35200976,19.9442194 7.39804282,19.8430579 C7.46782308,19.6908429 7.42909686,19.4941925 7.31145684,19.4043762 C6.74846527,18.9713671 6.47409366,18.4116698 6.4963795,17.7404112 C6.51866534,17.0715162 6.83687797,16.4120756 7.2182947,15.9776483 C7.23071632,16.6791608 7.51860558,17.1792958 8.08853863,17.4964891 C8.3168772,17.62365 8.44840021,17.787683 8.49004916,17.9970967 C8.56604024,18.3799978 8.33587497,18.8744601 8.24088612,19.0328204 C8.15685753,19.172272 8.1758553,19.3736496 8.28326576,19.4823745 C8.39104156,19.5910995 8.54594644,19.5669909 8.63034038,19.4284848 C8.65043417,19.3953946 9.12135962,18.6097384 8.97010816,17.8411 C8.88973299,17.4303087 8.65883703,17.1164244 8.28436179,16.907956 C7.75900042,16.6158167 7.61505579,16.1927347 7.77069135,15.3990423 C7.79407322,15.2784994 7.76192315,15.1508658 7.68739345,15.071922 C7.6124984,14.9934509 7.50947204,14.9778512 7.42288605,15.031741 C6.76344428,15.4434778 6.04116374,16.5231641 6.00170684,17.7129936 C5.98051702,18.3492711 6.14674749,19.2545248 7.05900572,19.9550919 C7.09846262,19.9853458 7.14193829,20 7.18504861,20" id="Fill-19"></path>
                        <path d="M0.584299437,11.7447944 C0.962570388,11.9071009 1.19907254,11.9172451 1.45014906,11.9279231 C1.64425306,11.9359317 1.82378271,11.950347 2,12 C1.83703213,11.7373198 1.5130838,11.4810464 0.887048692,11.3513081 C0.520702219,11.2760278 0.230539914,11.1494928 0,11 C0.079496522,11.313401 0.249751573,11.6011746 0.584299437,11.7447944 M2.35608425,12.8330555 C2.10178762,12.4059378 2.01188978,12.4010596 1.77149999,12.3875089 C1.55445384,12.3750422 1.25694664,12.3576974 0.841231242,12.1159531 C-0.322970547,11.4395027 0.0549976959,9.38034004 0.0713879088,9.29307361 C0.105658354,9.1158306 0.252176924,8.99224832 0.418562418,9.00037873 C0.58445124,9.0095932 0.719049655,9.14835226 0.735936541,9.3283054 C0.739413253,9.36191111 0.831794453,10.1548974 1.55197047,10.3565317 C3.33751033,10.8573651 2.96997223,12.6964646 2.96649552,12.7148935 C2.93570178,12.8585308 2.82991041,12.9685624 2.69680201,12.9940377 C2.67743176,12.9978319 2.65756484,13 2.63819458,13 C2.52544979,13 2.41916174,12.9382089 2.35608425,12.8330555" id="Fill-21"></path>
                    </g>
                </g>
            </g>
        </g>
    </g>
</svg>