<?xml version="1.0" encoding="UTF-8"?>
<svg width="45px" height="48px" viewBox="0 0 45 48" version="1.1" xmlns="http://www.w3.org/2000/svg" xmlns:xlink="http://www.w3.org/1999/xlink">
    <!-- Generator: Sketch 61.2 (89653) - https://sketch.com -->
    <title>Group</title>
    <desc>Created with Sketch.</desc>
    <g id="Page-1" stroke="none" stroke-width="1" fill="none" fill-rule="evenodd">
        <g id="Homepage" transform="translate(-452.000000, -3053.000000)">
            <g id="Group" transform="translate(452.000000, 3053.000000)">
                <ellipse id="Oval" stroke="#7B8427" cx="22.5" cy="24.6078431" rx="19.5" ry="19.6078431"></ellipse>
                <path d="M21.872591,21.4576782 L20.993121,22.6083978 L19.8900233,21.6954029 L20.7698892,20.5442712 L21.872591,21.4576782 Z M23.5116033,18.1204675 L24.340015,18.8064497 L23.9802318,19.2769552 L23.9339231,19.2382271 L23.1981288,18.6288771 L23.1518201,18.590973 L23.5116033,18.1204675 Z M23.4383801,20.9344365 C23.4601492,20.5450952 23.5563288,19.9950735 23.8848437,19.51262 L23.9256112,19.5459921 C23.9746906,19.5867802 24.0506844,19.5806002 24.0918477,19.526628 L24.5988689,18.8633059 C24.6400322,18.8093337 24.6293456,18.7302295 24.5802662,18.6898533 L23.5666197,17.8501946 C23.5151655,17.8077585 23.4411507,17.8168225 23.3999874,17.8703827 L22.8929662,18.5337048 C22.8518029,18.587677 22.8609063,18.6643092 22.9119647,18.7067454 L22.953128,18.7409415 C22.5755337,19.1830189 22.081574,19.4034396 21.7225824,19.513856 C21.3263855,19.6300403 20.9812469,19.8718851 20.7212056,20.2121982 L20.6582733,20.2945984 L19.6335442,21.6352507 L18.3871666,23.2659519 C18.2248882,23.4781326 18.2609061,23.7858976 18.4623688,23.9527581 L20.0123259,25.2361422 C20.216955,25.4058868 20.5126185,25.3729267 20.6748969,25.160334 L23.0089359,22.1065802 C23.2689772,21.7662672 23.4154236,21.3604459 23.4383801,20.9344365 L23.4383801,20.9344365 Z" id="Fill-3" fill="#7B8427"></path>
                <path d="M20.12612,24.464727 L19.1563761,23.721208 C19.1116187,23.6867735 19.0467378,23.6934598 19.0106543,23.7372552 C18.9766526,23.7787104 18.9842856,23.8408932 19.02939,23.8753277 L19.9987869,24.6185124 C20.0418095,24.6516096 20.1059965,24.644589 20.1403452,24.6031338 C20.1764287,24.5593384 20.1691426,24.4978243 20.12612,24.464727" id="Fill-5" fill="#7B8427"></path>
                <path d="M20.5953527,23.9947226 L19.6254218,23.2516008 C19.5806558,23.2168348 19.5157624,23.2235206 19.4817541,23.2649723 C19.4460107,23.3084297 19.4532982,23.3709415 19.4984112,23.4053732 L20.4679951,24.1488293 C20.511026,24.1819238 20.5755724,24.1742352 20.6113158,24.1311121 C20.6456711,24.0896604 20.6383836,24.0278171 20.5953527,23.9947226" id="Fill-7" fill="#7B8427"></path>
                <path d="M21.065062,23.2894297 L20.0951311,22.546015 C20.050018,22.5115852 19.9851246,22.5189392 19.9514633,22.55972 C19.9153729,22.6035093 19.9230074,22.6656833 19.9681204,22.7001131 L20.9377043,23.4435278 C20.9807352,23.4766205 21.0449346,23.4696008 21.081025,23.4258115 C21.1150334,23.3846964 21.1080929,23.3225223 21.065062,23.2894297" id="Fill-9" fill="#7B8427"></path>
                <path d="M22.4741331,21.4071862 L21.5057661,20.6656195 C21.4610722,20.6312754 21.395937,20.6382776 21.3602512,20.6816245 C21.3242189,20.725305 21.3314947,20.7879913 21.376535,20.8223355 L22.344902,21.5635688 C22.3878636,21.5965792 22.4523059,21.5889101 22.4883381,21.5452297 C22.5240239,21.5022161 22.5170947,21.4401966 22.4741331,21.4071862" id="Fill-11" fill="#7B8427"></path>
                <path d="M13.0111322,33.6948706 C13.5314018,31.8019758 15.4438966,31.3498042 15.5398843,31.3282532 C15.7205671,31.2871467 15.8359137,31.1303034 15.8161515,30.9407346 C15.8052622,30.8780771 15.1676294,24.6526361 19.746405,19.9513286 C20.0968812,19.5937419 20.2360231,19.0900874 20.1295493,18.6055893 C19.7270462,16.9238143 18.3013462,15.8083513 17.409225,15.2631912 C21.2350213,14.1996102 23.5310637,16.72347 23.6266482,16.8288303 C23.7419947,16.9561408 23.9226775,16.9860727 24.0618194,16.9130388 C28.503873,15.0093685 31.1911258,17.700847 32.1380971,18.9436205 C32.3708069,19.2473298 32.7539511,19.4153476 33.1366921,19.4153476 L33.3064855,19.4153476 C34.124801,19.4153476 34.7515443,19.5937419 35.1129099,19.9405531 C35.1976049,20.0159816 35.1762295,20.10019 35.1544508,20.130122 C35.1455779,20.1624484 35.1129099,20.2466569 34.9955467,20.2466569 C33.6985026,20.3089153 30.999957,20.593069 27.972714,21.6977566 C27.7920313,21.1510001 27.6113485,20.8041889 27.5895698,20.7718624 C27.4939854,20.6038445 27.2697451,20.5308106 27.0999517,20.6253955 C26.9301583,20.7203795 26.867242,20.9398803 26.9628264,21.1078981 C26.9737158,21.1402246 28.2905221,23.5910505 26.919269,26.1145112 C26.8563526,26.2286516 26.7494756,26.2182752 26.708338,26.2094952 C26.6647805,26.1987197 26.5583067,26.1556177 26.5474174,26.0199263 C26.4840977,23.0654459 24.5929783,21.7193075 24.5191726,21.6550537 C24.3602686,21.5405142 24.125139,21.5816207 24.0182619,21.7388631 C23.9033186,21.9068809 23.9444562,22.1180008 24.1033603,22.2341366 C24.1360284,22.2640686 24.5082833,22.5378459 24.9019136,23.0953778 C22.0642262,24.6634116 19.2156494,27.0707364 17.1656259,30.8134241 C17.1111791,30.9084081 17.1111791,31.0245439 17.1547366,31.1303034 C17.1958742,31.2248883 17.2829891,31.2983213 17.3874463,31.3282532 C17.483434,31.3498042 19.5983904,31.9292862 20.0444509,33.7164216 C17.9621627,32.6548361 15.0938238,32.6440606 13.0111322,33.6948706 M12.1819274,34.3689375 C12.171038,34.5046289 12.245247,34.6315403 12.3626101,34.7049733 C12.4799733,34.7676308 12.6279879,34.7564562 12.7457544,34.6834223 C14.8175566,33.26425 18.1948724,33.26425 20.2686912,34.6834223 C20.3320108,34.7265243 20.4058165,34.7458194 20.4691361,34.7458194 C20.5344723,34.7458194 20.5864992,34.7372997 20.6409461,34.7049733 C20.767182,34.6427149 20.8300983,34.5261799 20.8300983,34.3884931 C20.8300983,32.1595625 18.886952,31.1410789 18.0057202,30.7834922 C19.9706453,27.3852211 22.6171638,25.1670661 25.2721519,23.7047918 C25.5701978,24.2950493 25.8137969,25.0617057 25.8355757,26.0390828 C25.846465,26.4505469 26.1227322,26.7973582 26.536528,26.8923421 C26.6123502,26.913494 26.6865592,26.9242695 26.7603649,26.9242695 C27.0890624,26.9242695 27.3875116,26.7454762 27.5460123,26.4505469 C28.3752172,24.9260143 28.3534384,23.4637401 28.1425074,22.391379 C31.1173202,21.297467 33.7638387,21.0236896 35.0387009,20.9614312 C35.4000664,20.9398803 35.7069851,20.7203795 35.8352376,20.3823483 C35.9638934,20.0355371 35.8767785,19.6671749 35.6114007,19.4261231 C35.0802418,18.9220695 34.2425674,18.6702423 33.126206,18.7001742 C32.9668987,18.7217252 32.8059781,18.6379158 32.7103937,18.5213808 C31.9029675,17.4490198 28.9063761,14.1800546 23.9880137,16.1763144 C23.2543933,15.4938665 20.4691361,13.2757115 16.3799785,14.8521261 C16.2408367,14.9056045 16.1557383,15.0305204 16.144849,15.1773863 C16.144849,15.3258487 16.229544,15.4507646 16.3690892,15.5154175 C16.3884481,15.526193 18.9280896,16.6608125 19.4290003,18.7736072 C19.4810272,19.0170535 19.4072215,19.2796562 19.2265388,19.4584496 C14.9324999,23.8644287 14.997836,29.3834764 15.0829344,30.7296147 C14.3057565,30.9922175 12.3408314,31.9181116 12.1819274,34.3689375" id="Fill-13" fill="#7B8427"></path>
                <path d="M29.5487557,18.265787 C29.8030381,18.265787 30.0242681,18.4774279 30.0242681,18.7345159 C30.0242681,18.9942773 29.8030381,19.2059182 29.5487557,19.2059182 C29.2944733,19.2059182 29.085142,18.9942773 29.085142,18.7345159 C29.085142,18.4774279 29.2944733,18.265787 29.5487557,18.265787" id="Fill-15" fill="#7B8427"></path>
            </g>
        </g>
    </g>
</svg>