<svg height="41" viewBox="0 0 41 41" width="41" xmlns="http://www.w3.org/2000/svg"><g fill="none" fill-rule="evenodd" transform="translate(1 1)"><ellipse cx="19.5" cy="19.607843" rx="19.5" ry="19.607843" stroke="#009191"/><g fill="#009191"><path d="m15.2045998 12.2898204c-.6079619-.4699847-.9410861-1.0616689-.9410861-1.6841783 0-.62050779.3331242-1.21419363.9410861-1.68417825.6099857.46998462.9431099 1.06367046.9431099 1.68417825 0 .6225094-.3331242 1.2141936-.9431099 1.6841783m-.3428387 3.9160046c-.7698691.0848695-1.4264031-.0944773-1.8647671-.5376399-.4460546-.4319535-.6273907-1.0812849-.5415799-1.8443093.7714882-.0944774 1.4280223.0944773 1.8647672.5280321.4480784.441161.6371051 1.0908927.5415798 1.8539171m0 4.4032034c-.7698691.0944773-1.4264031-.094077-1.8647671-.53764-.4460546-.4315531-.6273907-1.0808845-.5415799-1.8439089.7714882-.0924757 1.4280223.094077 1.8647672.53764.4480784.4315531.6371051 1.0808845.5415798 1.8439089m0 4.4036037c-.7698691.0944774-1.4264031-.0944773-1.8647671-.5280321-.4460546-.441161-.6273907-1.0904924-.5415799-1.8519155.7714882-.0848695 1.4280223.0924757 1.8647672.5356383.4480784.4415614.6371051 1.0908928.5415798 1.8443093m1.227662-10.6607242c.438364-.4335548 1.094898-.6225095 1.8647671-.5280321.0951205.7630244-.0935014 1.4123558-.5419846 1.8443093-.438364.4431626-1.0928742.6225094-1.8647671.5376399-.0951206-.7630244.0955253-1.4127561.5419846-1.8539171m0 4.4132116c.438364-.443563 1.094898-.6301157 1.8647671-.53764.0951205.7630244-.0935014 1.4123558-.5419846 1.8439089-.438364.443563-1.0928742.6321173-1.8647671.53764-.0951206-.7630244.0955253-1.4123558.5419846-1.8439089m0 4.4032033c.438364-.4335548 1.094898-.6205078 1.8647671-.5356383.0951205.7614231-.0935014 1.4107545-.5419846 1.8519155-.438364.4335548-1.0928742.6225095-1.8647671.5280321-.0951206-.7534165.0955253-1.4027479.5419846-1.8443093m13.728928 5.4480585c-1.6640021-.7438087-3.6145801-1.2702395-5.6995411-1.5804934 0 0-.4978649-.0508416-.6638198-.0876718-2.5893023-.3258666-5.3482024-.3254663-7.9366951.0032027v-1.308671c.1440975.0192157.2671471.0288236.3995063.0288236.7816074 0 1.4575703-.254208 1.950578-.7438087.6294145-.6301157.8767279-1.562879.6759629-2.6245478-.0194289-.1329088-.1226448-.2273861-.2574326-.2546084-1.0734453-.1981622-2.0165552.046438-2.6536604.6765537-.0388577.0384314-.0756916.0848694-.1149542.1233009v-1.609317c.1440975.019616.2671471.0292239.3995063.0292239.7816074 0 1.4575703-.2546084 1.950578-.7438087.6294145-.6301157.8767279-1.562879.6759629-2.6265494-.0194289-.1313075-.1226448-.2353927-.2574326-.2526068-1.0734453-.1985625-2.0165552.0460377-2.6536604.6665455-.0388577.0484396-.0756916.0848695-.1149542.1329088v-1.6089167c.1440975.0096079.2671471.0192157.3995063.0192157.7816074 0 1.4575703-.254208 1.950578-.7438087.6294145-.6225094.8767279-1.562879.6759629-2.6265494-.0194289-.1216996-.1226448-.2253845-.2574326-.2526067-1.0734453-.1889547-2.0165552.046438-2.6536604.6765536-.0388577.0384315-.0756916.0848695-.1149542.1329088v-1.2045858c.8184414-.6032937 1.2665198-1.3835322 1.2665198-2.2314261 0-.89433187-.4950316-1.72100839-1.398879-2.33350963-.1052397-.07526159-.2574325-.07526159-.3626723 0-.9018235.61250124-1.3968551 1.43917776-1.3968551 2.33350963 0 .8478939.4460546 1.6281324 1.2547815 2.2314261v1.2045858c-.0271195-.0480393-.0659772-.0944773-.1032159-.1329088-.639129-.6301156-1.5802151-.8655083-2.6556842-.6765536-.132764.0272222-.2375989.1309071-.2570278.2526067-.1987412 1.0636704.0388577 2.00404.6759629 2.6265494.4950315.4896007 1.1709944.7438087 1.9501732.7438087.1323592 0 .267147-.0096078.3897918-.0192157v1.6089167c-.0271195-.0480393-.0659772-.0844692-.1032159-.1329088-.639129-.6205078-1.5802151-.865108-2.6556842-.6665455-.132764.0172141-.2375989.1212993-.2570278.2526068-.1987412 1.0636704.0388577 1.9964337.6759629 2.6265494.4950315.4892003 1.1709944.7438087 1.9501732.7438087.1323592 0 .267147-.0096079.3897918-.0292239v1.609317c-.0271195-.0384315-.0659772-.0848695-.1032159-.1233009-.639129-.6301157-1.5802151-.8747159-2.6556842-.6765537-.132764.0272223-.2375989.1216996-.2570278.2546084-.1987412 1.0616688.0388577 1.9944321.6759629 2.6245478.4950315.4896007 1.1709944.7438087 1.9501732.7438087.1323592 0 .267147-.0096079.3897918-.0288236v1.3931401c-2.0829372.3102539-4.0335152.8366847-5.69954114 1.5804934-.15178807.0652534-.2278845.254208-.15178807.4143391.06840582.1597307.25743258.2253844.41893509.1597307 5.54734832-2.4840328 14.56720302-2.4840328 20.10443212 0 .0469531.0192157.083787.0192157.1327639.0192157.1226448 0 .237599-.067255.2841473-.1789464.0760964-.1601311 0-.3490857-.1517881-.4143391"/><path d="m24.1539322 13.600975c-.1127935.0016238-.2095245-.0929593-.2113136-.2062154-.0003526-.0556132.0210639-.1116324.0596136-.1575031.0385496-.0450589.0878075-.0714447.1356376-.0722566.0456885-.0008119.0942325.0235443.133496.0669794.0410482.0454648.0649633.1035137.0653202.1591269v.0020297c0 .0511479-.0192748.1027017-.0538981.1428894-.0353372.0405936-.0824534.0641379-.1288557.0649497m-2.0402758 12.5836063.0835243-.0661676c.0471162-.0369402.0831673-.0649497.1174336-.0953949l.3380233-.297957c.3680063-.3239368.7485056-.6596458 1.1186536-.9969785.0128499-.0113662.0217734-.0182671.0271276-.0219205.006068.0040593.0160623.0113662.0306969.0247621.3415927.3097291.6863979.6145869 1.031203.9198507l.2509297.2224528c.0742437.0653557.1492014.1294936.224159.1932255l.103513.088494c.054612.0470886.1306404.0466827.1848955-.0012178l.0328386-.0292274c.048544-.043841.0692466-.1169095.0517564-.1847008l-.0071388-.0300392c-.0074957-.0345046-.0160623-.0690091-.0285553-.1010781l-.3076833-.7907631c-.1663345-.4266386-.3323122-.8532772-.497219-1.2811336-.1591958-.4124308-.1756151-.7120115-.0563967-1.0355424.4211906-1.1463629.7060296-2.3312897.8455936-3.5218997.0335525-.2890263.0599661-.576023.0881645-.8792571.005711-.0596725.0114221-.119751.0167762-.1810474l.9630273.5780527c.0456885.0276037.1003005.0263859.145632-.0020297l.0517565-.0332867c.0628216-.0397817.0920908-.1246223.0706743-.202562-.0207026-.0755041-.0396205-.15182-.0585384-.2285419-.0431898-.1757702-.0878075-.3572236-.1563402-.5305582-.224516-.5662805-.6039444-.9766817-.9730216-1.348113-.042476-.0426233-.0795979-.1128502-.084952-.1599388-.1781136-1.6083179-.6039445-2.9649556-1.3014075-4.1478527-.1020852-.1729287-.2138078-.3353031-.3323122-.507014-.0560398-.0811871-.1138643-.1648099-.1727596-.2533039-.0289122-.0434352-.0742437-.0686032-.1224308-.0682021-.0478301.0004108-.0928047.0263907-.12136.0706377-.0660341.1022958-.1302835.1985026-.1927482.2918679-.1313543.1968789-.2555699.3827975-.3669355.5804883-.7217351 1.2807277-1.1425687 2.7489977-1.250008 4.3638106-.011779.1765821-.054255.2902442-.151343.405124-.3223179.3815798-.5193494.7436746-.6200068 1.1386502-.0339095.1315232-.0478302.265888-.0631786.4075596-.0067819.0657616-.0142777.1343648-.0239151.2074332-.0010708.0085247-.0017847.0174553-.0017847.0259799 0 .057237.0249859.1112264.0674619.1437013.0489009.0373461.1124364.0393758.1631221.0048713l.6282164-.4262327c.006068.0795634.012136.1534437.0189179.22773.127428 1.3964194.4393946 2.7753836.9269762 4.0987345.1185045.3219072.0646064.601597-.0535411.9214745-.1784706.4830637-.3715758.9697808-.558613 1.4406664-.0878075.2212351-.175615.4424701-.2623517.664517-.0164193.0414055-.0239151.0799694-.0331955.1286817-.0049972.0239502-.0107083.0523657-.018561.088494-.0153485.069821.0089235.1441073.061037.1851068.0524703.0409995.1217169.0409995.1741872-.0004059"/></g></g></svg>